<mxfile host="Electron" agent="Mozilla/5.0 (Macintosh; Intel Mac OS X 10_15_7) AppleWebKit/537.36 (KHTML, like Gecko) draw.io/25.0.2 Chrome/128.0.6613.186 Electron/32.2.5 Safari/537.36" version="25.0.2" pages="2">
  <diagram id="R2lEEEUBdFMjLlhIrx00" name="UML">
    <mxGraphModel dx="1242" dy="805" grid="1" gridSize="10" guides="1" tooltips="1" connect="1" arrows="1" fold="1" page="1" pageScale="1" pageWidth="640" pageHeight="440" math="0" shadow="0" extFonts="Permanent Marker^https://fonts.googleapis.com/css?family=Permanent+Marker">
      <root>
        <mxCell id="0" />
        <mxCell id="1" parent="0" />
        <mxCell id="918bhYTfLLuf7zGoPPsO-271" value="Role" style="shape=table;startSize=40;container=1;collapsible=0;childLayout=tableLayout;fixedRows=1;rowLines=0;fontStyle=1;align=center;resizeLast=1;fontSize=14;swimlaneFillColor=none;fontFamily=Helvetica;" parent="1" vertex="1">
          <mxGeometry x="360" y="320" width="240" height="60" as="geometry">
            <mxRectangle x="120" y="120" width="80" height="30" as="alternateBounds" />
          </mxGeometry>
        </mxCell>
        <mxCell id="918bhYTfLLuf7zGoPPsO-272" value="" style="shape=partialRectangle;collapsible=0;dropTarget=0;pointerEvents=0;fillColor=none;points=[[0,0.5],[1,0.5]];portConstraint=eastwest;top=0;left=0;right=0;bottom=1;fontSize=10;fontFamily=Courier New;" parent="918bhYTfLLuf7zGoPPsO-271" vertex="1">
          <mxGeometry y="40" width="240" height="20" as="geometry" />
        </mxCell>
        <mxCell id="918bhYTfLLuf7zGoPPsO-273" value="PK" style="shape=partialRectangle;overflow=hidden;connectable=0;fillColor=none;top=0;left=0;bottom=0;right=0;fontStyle=0;fontSize=10;fontFamily=Courier New;" parent="918bhYTfLLuf7zGoPPsO-272" vertex="1">
          <mxGeometry width="40" height="20" as="geometry">
            <mxRectangle width="40" height="20" as="alternateBounds" />
          </mxGeometry>
        </mxCell>
        <mxCell id="918bhYTfLLuf7zGoPPsO-274" value="role_title VARCHAR(15)" style="shape=partialRectangle;overflow=hidden;connectable=0;fillColor=none;top=0;left=0;bottom=0;right=0;align=left;spacingLeft=6;fontStyle=0;fontSize=10;fontFamily=Courier New;" parent="918bhYTfLLuf7zGoPPsO-272" vertex="1">
          <mxGeometry x="40" width="200" height="20" as="geometry">
            <mxRectangle width="200" height="20" as="alternateBounds" />
          </mxGeometry>
        </mxCell>
        <mxCell id="PI8v7SkOeowznwJ9N4Px-1" value="Student" style="shape=table;startSize=40;container=1;collapsible=0;childLayout=tableLayout;fixedRows=1;rowLines=0;fontStyle=1;align=center;resizeLast=1;fontSize=14;swimlaneFillColor=none;fontFamily=Helvetica;" parent="1" vertex="1">
          <mxGeometry x="40" y="40" width="240" height="200" as="geometry">
            <mxRectangle x="120" y="120" width="80" height="30" as="alternateBounds" />
          </mxGeometry>
        </mxCell>
        <mxCell id="PI8v7SkOeowznwJ9N4Px-2" value="" style="shape=partialRectangle;collapsible=0;dropTarget=0;pointerEvents=0;fillColor=none;points=[[0,0.5],[1,0.5]];portConstraint=eastwest;top=0;left=0;right=0;bottom=1;fontSize=10;fontFamily=Courier New;" parent="PI8v7SkOeowznwJ9N4Px-1" vertex="1">
          <mxGeometry y="40" width="240" height="20" as="geometry" />
        </mxCell>
        <mxCell id="PI8v7SkOeowznwJ9N4Px-3" value="PK" style="shape=partialRectangle;overflow=hidden;connectable=0;fillColor=none;top=0;left=0;bottom=0;right=0;fontStyle=0;fontSize=10;fontFamily=Courier New;" parent="PI8v7SkOeowznwJ9N4Px-2" vertex="1">
          <mxGeometry width="40" height="20" as="geometry">
            <mxRectangle width="40" height="20" as="alternateBounds" />
          </mxGeometry>
        </mxCell>
        <mxCell id="PI8v7SkOeowznwJ9N4Px-4" value="student_id VARCHAR(15)" style="shape=partialRectangle;overflow=hidden;connectable=0;fillColor=none;top=0;left=0;bottom=0;right=0;align=left;spacingLeft=6;fontStyle=0;fontSize=10;fontFamily=Courier New;" parent="PI8v7SkOeowznwJ9N4Px-2" vertex="1">
          <mxGeometry x="40" width="200" height="20" as="geometry">
            <mxRectangle width="200" height="20" as="alternateBounds" />
          </mxGeometry>
        </mxCell>
        <mxCell id="PI8v7SkOeowznwJ9N4Px-5" value="" style="shape=partialRectangle;collapsible=0;dropTarget=0;pointerEvents=0;fillColor=none;points=[[0,0.5],[1,0.5]];portConstraint=eastwest;top=0;left=0;right=0;bottom=0;fontSize=10;fontFamily=Courier New;" parent="PI8v7SkOeowznwJ9N4Px-1" vertex="1">
          <mxGeometry y="60" width="240" height="20" as="geometry" />
        </mxCell>
        <mxCell id="PI8v7SkOeowznwJ9N4Px-6" value="" style="shape=partialRectangle;overflow=hidden;connectable=0;fillColor=none;top=0;left=0;bottom=0;right=0;fontSize=10;fontFamily=Courier New;" parent="PI8v7SkOeowznwJ9N4Px-5" vertex="1">
          <mxGeometry width="40" height="20" as="geometry">
            <mxRectangle width="40" height="20" as="alternateBounds" />
          </mxGeometry>
        </mxCell>
        <mxCell id="PI8v7SkOeowznwJ9N4Px-7" value="email VARCHAR(254) NOT NULL" style="shape=partialRectangle;overflow=hidden;connectable=0;fillColor=none;top=0;left=0;bottom=0;right=0;align=left;spacingLeft=6;fontSize=10;fontStyle=0;fontFamily=Courier New;" parent="PI8v7SkOeowznwJ9N4Px-5" vertex="1">
          <mxGeometry x="40" width="200" height="20" as="geometry">
            <mxRectangle width="200" height="20" as="alternateBounds" />
          </mxGeometry>
        </mxCell>
        <mxCell id="YIYcVrpJrsvkREEbpxvb-12" value="" style="shape=tableRow;horizontal=0;startSize=0;swimlaneHead=0;swimlaneBody=0;fillColor=none;collapsible=0;dropTarget=0;points=[[0,0.5],[1,0.5]];portConstraint=eastwest;top=0;left=0;right=0;bottom=0;" parent="PI8v7SkOeowznwJ9N4Px-1" vertex="1">
          <mxGeometry y="80" width="240" height="20" as="geometry" />
        </mxCell>
        <mxCell id="YIYcVrpJrsvkREEbpxvb-13" value="" style="shape=partialRectangle;connectable=0;fillColor=none;top=0;left=0;bottom=0;right=0;editable=1;overflow=hidden;" parent="YIYcVrpJrsvkREEbpxvb-12" vertex="1">
          <mxGeometry width="40" height="20" as="geometry">
            <mxRectangle width="40" height="20" as="alternateBounds" />
          </mxGeometry>
        </mxCell>
        <mxCell id="YIYcVrpJrsvkREEbpxvb-14" value="password VARCHAR(115) NOT NULL" style="shape=partialRectangle;connectable=0;fillColor=none;top=0;left=0;bottom=0;right=0;align=left;spacingLeft=6;overflow=hidden;fontSize=10;fontFamily=Courier New;" parent="YIYcVrpJrsvkREEbpxvb-12" vertex="1">
          <mxGeometry x="40" width="200" height="20" as="geometry">
            <mxRectangle width="200" height="20" as="alternateBounds" />
          </mxGeometry>
        </mxCell>
        <mxCell id="YIYcVrpJrsvkREEbpxvb-18" value="" style="shape=tableRow;horizontal=0;startSize=0;swimlaneHead=0;swimlaneBody=0;fillColor=none;collapsible=0;dropTarget=0;points=[[0,0.5],[1,0.5]];portConstraint=eastwest;top=0;left=0;right=0;bottom=0;" parent="PI8v7SkOeowznwJ9N4Px-1" vertex="1">
          <mxGeometry y="100" width="240" height="20" as="geometry" />
        </mxCell>
        <mxCell id="YIYcVrpJrsvkREEbpxvb-19" value="" style="shape=partialRectangle;connectable=0;fillColor=none;top=0;left=0;bottom=0;right=0;editable=1;overflow=hidden;" parent="YIYcVrpJrsvkREEbpxvb-18" vertex="1">
          <mxGeometry width="40" height="20" as="geometry">
            <mxRectangle width="40" height="20" as="alternateBounds" />
          </mxGeometry>
        </mxCell>
        <mxCell id="YIYcVrpJrsvkREEbpxvb-20" value="first_name VARCHAR(50)" style="shape=partialRectangle;connectable=0;fillColor=none;top=0;left=0;bottom=0;right=0;align=left;spacingLeft=6;overflow=hidden;fontSize=10;fontFamily=Courier New;" parent="YIYcVrpJrsvkREEbpxvb-18" vertex="1">
          <mxGeometry x="40" width="200" height="20" as="geometry">
            <mxRectangle width="200" height="20" as="alternateBounds" />
          </mxGeometry>
        </mxCell>
        <mxCell id="YIYcVrpJrsvkREEbpxvb-5" value="" style="shape=tableRow;horizontal=0;startSize=0;swimlaneHead=0;swimlaneBody=0;fillColor=none;collapsible=0;dropTarget=0;points=[[0,0.5],[1,0.5]];portConstraint=eastwest;top=0;left=0;right=0;bottom=0;" parent="PI8v7SkOeowznwJ9N4Px-1" vertex="1">
          <mxGeometry y="120" width="240" height="20" as="geometry" />
        </mxCell>
        <mxCell id="YIYcVrpJrsvkREEbpxvb-6" value="" style="shape=partialRectangle;connectable=0;fillColor=none;top=0;left=0;bottom=0;right=0;editable=1;overflow=hidden;" parent="YIYcVrpJrsvkREEbpxvb-5" vertex="1">
          <mxGeometry width="40" height="20" as="geometry">
            <mxRectangle width="40" height="20" as="alternateBounds" />
          </mxGeometry>
        </mxCell>
        <mxCell id="YIYcVrpJrsvkREEbpxvb-7" value="last_name VARCHAR(100)" style="shape=partialRectangle;connectable=0;fillColor=none;top=0;left=0;bottom=0;right=0;align=left;spacingLeft=6;overflow=hidden;fontSize=10;fontFamily=Courier New;" parent="YIYcVrpJrsvkREEbpxvb-5" vertex="1">
          <mxGeometry x="40" width="200" height="20" as="geometry">
            <mxRectangle width="200" height="20" as="alternateBounds" />
          </mxGeometry>
        </mxCell>
        <mxCell id="TRC5eK7wFTjy1dkMUaeM-19" value="" style="shape=tableRow;horizontal=0;startSize=0;swimlaneHead=0;swimlaneBody=0;fillColor=none;collapsible=0;dropTarget=0;points=[[0,0.5],[1,0.5]];portConstraint=eastwest;top=0;left=0;right=0;bottom=0;fontSize=10;fontFamily=Courier New;" parent="PI8v7SkOeowznwJ9N4Px-1" vertex="1">
          <mxGeometry y="140" width="240" height="20" as="geometry" />
        </mxCell>
        <mxCell id="TRC5eK7wFTjy1dkMUaeM-20" value="" style="shape=partialRectangle;connectable=0;fillColor=none;top=0;left=0;bottom=0;right=0;editable=1;overflow=hidden;" parent="TRC5eK7wFTjy1dkMUaeM-19" vertex="1">
          <mxGeometry width="40" height="20" as="geometry">
            <mxRectangle width="40" height="20" as="alternateBounds" />
          </mxGeometry>
        </mxCell>
        <mxCell id="TRC5eK7wFTjy1dkMUaeM-21" value="last_name VARCHAR(100)" style="shape=partialRectangle;connectable=0;fillColor=none;top=0;left=0;bottom=0;right=0;align=left;spacingLeft=6;overflow=hidden;fontFamily=Courier New;fontSize=10;" parent="TRC5eK7wFTjy1dkMUaeM-19" vertex="1">
          <mxGeometry x="40" width="200" height="20" as="geometry">
            <mxRectangle width="200" height="20" as="alternateBounds" />
          </mxGeometry>
        </mxCell>
        <mxCell id="Jv5dx52WQgD5pH7DnDE7-6" value="" style="shape=tableRow;horizontal=0;startSize=0;swimlaneHead=0;swimlaneBody=0;fillColor=none;collapsible=0;dropTarget=0;points=[[0,0.5],[1,0.5]];portConstraint=eastwest;top=0;left=0;right=0;bottom=0;" parent="PI8v7SkOeowznwJ9N4Px-1" vertex="1">
          <mxGeometry y="160" width="240" height="20" as="geometry" />
        </mxCell>
        <mxCell id="Jv5dx52WQgD5pH7DnDE7-7" value="" style="shape=partialRectangle;connectable=0;fillColor=none;top=0;left=0;bottom=0;right=0;editable=1;overflow=hidden;" parent="Jv5dx52WQgD5pH7DnDE7-6" vertex="1">
          <mxGeometry width="40" height="20" as="geometry">
            <mxRectangle width="40" height="20" as="alternateBounds" />
          </mxGeometry>
        </mxCell>
        <mxCell id="Jv5dx52WQgD5pH7DnDE7-8" value="department_name VARCHAR(50)" style="shape=partialRectangle;connectable=0;fillColor=none;top=0;left=0;bottom=0;right=0;align=left;spacingLeft=6;overflow=hidden;fontSize=10;fontFamily=Courier New;" parent="Jv5dx52WQgD5pH7DnDE7-6" vertex="1">
          <mxGeometry x="40" width="200" height="20" as="geometry">
            <mxRectangle width="200" height="20" as="alternateBounds" />
          </mxGeometry>
        </mxCell>
        <mxCell id="8rxtPhz_1rS7_iVd1npV-55" value="" style="shape=tableRow;horizontal=0;startSize=0;swimlaneHead=0;swimlaneBody=0;fillColor=none;collapsible=0;dropTarget=0;points=[[0,0.5],[1,0.5]];portConstraint=eastwest;top=0;left=0;right=0;bottom=0;" parent="PI8v7SkOeowznwJ9N4Px-1" vertex="1">
          <mxGeometry y="180" width="240" height="20" as="geometry" />
        </mxCell>
        <mxCell id="8rxtPhz_1rS7_iVd1npV-56" value="" style="shape=partialRectangle;connectable=0;fillColor=none;top=0;left=0;bottom=0;right=0;editable=1;overflow=hidden;" parent="8rxtPhz_1rS7_iVd1npV-55" vertex="1">
          <mxGeometry width="40" height="20" as="geometry">
            <mxRectangle width="40" height="20" as="alternateBounds" />
          </mxGeometry>
        </mxCell>
        <mxCell id="8rxtPhz_1rS7_iVd1npV-57" value="created_at TIMESTAMP NOT NULL" style="shape=partialRectangle;connectable=0;fillColor=none;top=0;left=0;bottom=0;right=0;align=left;spacingLeft=6;overflow=hidden;fontSize=10;fontFamily=Courier New;" parent="8rxtPhz_1rS7_iVd1npV-55" vertex="1">
          <mxGeometry x="40" width="200" height="20" as="geometry">
            <mxRectangle width="200" height="20" as="alternateBounds" />
          </mxGeometry>
        </mxCell>
        <mxCell id="PI8v7SkOeowznwJ9N4Px-30" value="StudentRole" style="shape=table;startSize=40;container=1;collapsible=0;childLayout=tableLayout;fixedRows=1;rowLines=0;fontStyle=1;align=center;resizeLast=1;fontSize=14;swimlaneFillColor=none;fontFamily=Helvetica;" parent="1" vertex="1">
          <mxGeometry x="40" y="320" width="240" height="80" as="geometry">
            <mxRectangle x="120" y="120" width="80" height="30" as="alternateBounds" />
          </mxGeometry>
        </mxCell>
        <mxCell id="PI8v7SkOeowznwJ9N4Px-31" value="" style="shape=tableRow;horizontal=0;startSize=0;swimlaneHead=0;swimlaneBody=0;fillColor=none;collapsible=0;dropTarget=0;points=[[0,0.5],[1,0.5]];portConstraint=eastwest;top=0;left=0;right=0;bottom=0;" parent="PI8v7SkOeowznwJ9N4Px-30" vertex="1">
          <mxGeometry y="40" width="240" height="20" as="geometry" />
        </mxCell>
        <mxCell id="PI8v7SkOeowznwJ9N4Px-32" value="PK FK" style="shape=partialRectangle;connectable=0;fillColor=none;top=0;left=0;bottom=0;right=0;editable=1;overflow=hidden;fontSize=10;fontFamily=Courier New;" parent="PI8v7SkOeowznwJ9N4Px-31" vertex="1">
          <mxGeometry width="40" height="20" as="geometry">
            <mxRectangle width="40" height="20" as="alternateBounds" />
          </mxGeometry>
        </mxCell>
        <mxCell id="PI8v7SkOeowznwJ9N4Px-33" value="student_id VARCHAR(15)" style="shape=partialRectangle;connectable=0;fillColor=none;top=0;left=0;bottom=0;right=0;align=left;spacingLeft=6;overflow=hidden;fontSize=10;fontFamily=Courier New;" parent="PI8v7SkOeowznwJ9N4Px-31" vertex="1">
          <mxGeometry x="40" width="200" height="20" as="geometry">
            <mxRectangle width="200" height="20" as="alternateBounds" />
          </mxGeometry>
        </mxCell>
        <mxCell id="PI8v7SkOeowznwJ9N4Px-34" value="" style="shape=partialRectangle;collapsible=0;dropTarget=0;pointerEvents=0;fillColor=none;points=[[0,0.5],[1,0.5]];portConstraint=eastwest;top=0;left=0;right=0;bottom=1;fontSize=10;fontFamily=Courier New;" parent="PI8v7SkOeowznwJ9N4Px-30" vertex="1">
          <mxGeometry y="60" width="240" height="20" as="geometry" />
        </mxCell>
        <mxCell id="PI8v7SkOeowznwJ9N4Px-35" value="PK FK" style="shape=partialRectangle;overflow=hidden;connectable=0;fillColor=none;top=0;left=0;bottom=0;right=0;fontStyle=0;fontSize=10;fontFamily=Courier New;" parent="PI8v7SkOeowznwJ9N4Px-34" vertex="1">
          <mxGeometry width="40" height="20" as="geometry">
            <mxRectangle width="40" height="20" as="alternateBounds" />
          </mxGeometry>
        </mxCell>
        <mxCell id="PI8v7SkOeowznwJ9N4Px-36" value="role_title VARCHAR(15)" style="shape=partialRectangle;overflow=hidden;connectable=0;fillColor=none;top=0;left=0;bottom=0;right=0;align=left;spacingLeft=6;fontStyle=0;fontSize=10;fontFamily=Courier New;" parent="PI8v7SkOeowznwJ9N4Px-34" vertex="1">
          <mxGeometry x="40" width="200" height="20" as="geometry">
            <mxRectangle width="200" height="20" as="alternateBounds" />
          </mxGeometry>
        </mxCell>
        <mxCell id="PI8v7SkOeowznwJ9N4Px-37" value="" style="edgeStyle=orthogonalEdgeStyle;fontSize=12;html=1;endArrow=ERoneToMany;startArrow=ERmandOne;rounded=0;exitX=0.5;exitY=0;exitDx=0;exitDy=0;entryX=0.5;entryY=1.003;entryDx=0;entryDy=0;entryPerimeter=0;" parent="1" source="PI8v7SkOeowznwJ9N4Px-30" target="8rxtPhz_1rS7_iVd1npV-55" edge="1">
          <mxGeometry width="100" height="100" relative="1" as="geometry">
            <mxPoint x="750" y="250" as="sourcePoint" />
            <mxPoint x="160" y="260" as="targetPoint" />
            <Array as="points" />
          </mxGeometry>
        </mxCell>
        <mxCell id="PI8v7SkOeowznwJ9N4Px-38" value="" style="edgeStyle=orthogonalEdgeStyle;fontSize=12;html=1;endArrow=ERoneToMany;startArrow=ERmandOne;rounded=0;exitX=1;exitY=0.5;exitDx=0;exitDy=0;entryX=0;entryY=0.5;entryDx=0;entryDy=0;" parent="1" source="PI8v7SkOeowznwJ9N4Px-31" target="918bhYTfLLuf7zGoPPsO-272" edge="1">
          <mxGeometry width="100" height="100" relative="1" as="geometry">
            <mxPoint x="100" y="170" as="sourcePoint" />
            <mxPoint x="480" y="330" as="targetPoint" />
            <Array as="points">
              <mxPoint x="330" y="370" />
              <mxPoint x="330" y="370" />
            </Array>
          </mxGeometry>
        </mxCell>
        <mxCell id="8rxtPhz_1rS7_iVd1npV-34" value="Department" style="shape=table;startSize=40;container=1;collapsible=0;childLayout=tableLayout;fixedRows=1;rowLines=0;fontStyle=1;align=center;resizeLast=1;fontSize=14;swimlaneFillColor=none;fontFamily=Helvetica;" parent="1" vertex="1">
          <mxGeometry x="360" y="40" width="240" height="170.00000000000023" as="geometry">
            <mxRectangle x="120" y="120" width="80" height="30" as="alternateBounds" />
          </mxGeometry>
        </mxCell>
        <mxCell id="8rxtPhz_1rS7_iVd1npV-35" value="" style="shape=partialRectangle;collapsible=0;dropTarget=0;pointerEvents=0;fillColor=none;points=[[0,0.5],[1,0.5]];portConstraint=eastwest;top=0;left=0;right=0;bottom=1;fontSize=10;fontFamily=Courier New;" parent="8rxtPhz_1rS7_iVd1npV-34" vertex="1">
          <mxGeometry y="40" width="240" height="20" as="geometry" />
        </mxCell>
        <mxCell id="8rxtPhz_1rS7_iVd1npV-36" value="PK" style="shape=partialRectangle;overflow=hidden;connectable=0;fillColor=none;top=0;left=0;bottom=0;right=0;fontStyle=0;fontSize=10;fontFamily=Courier New;" parent="8rxtPhz_1rS7_iVd1npV-35" vertex="1">
          <mxGeometry width="40" height="20" as="geometry">
            <mxRectangle width="40" height="20" as="alternateBounds" />
          </mxGeometry>
        </mxCell>
        <mxCell id="8rxtPhz_1rS7_iVd1npV-37" value="department_name VARCHAR(50)" style="shape=partialRectangle;overflow=hidden;connectable=0;fillColor=none;top=0;left=0;bottom=0;right=0;align=left;spacingLeft=6;fontStyle=0;fontSize=10;fontFamily=Courier New;" parent="8rxtPhz_1rS7_iVd1npV-35" vertex="1">
          <mxGeometry x="40" width="200" height="20" as="geometry">
            <mxRectangle width="200" height="20" as="alternateBounds" />
          </mxGeometry>
        </mxCell>
        <mxCell id="8rxtPhz_1rS7_iVd1npV-38" value="" style="shape=partialRectangle;collapsible=0;dropTarget=0;pointerEvents=0;fillColor=none;points=[[0,0.5],[1,0.5]];portConstraint=eastwest;top=0;left=0;right=0;bottom=0;fontSize=10;fontFamily=Courier New;" parent="8rxtPhz_1rS7_iVd1npV-34" vertex="1">
          <mxGeometry y="60" width="240" height="20" as="geometry" />
        </mxCell>
        <mxCell id="8rxtPhz_1rS7_iVd1npV-39" value="" style="shape=partialRectangle;overflow=hidden;connectable=0;fillColor=none;top=0;left=0;bottom=0;right=0;fontSize=10;fontFamily=Courier New;" parent="8rxtPhz_1rS7_iVd1npV-38" vertex="1">
          <mxGeometry width="40" height="20" as="geometry">
            <mxRectangle width="40" height="20" as="alternateBounds" />
          </mxGeometry>
        </mxCell>
        <mxCell id="8rxtPhz_1rS7_iVd1npV-40" value="website VARCHAR(254) NOT NULL" style="shape=partialRectangle;overflow=hidden;connectable=0;fillColor=none;top=0;left=0;bottom=0;right=0;align=left;spacingLeft=6;fontSize=10;fontStyle=0;fontFamily=Courier New;" parent="8rxtPhz_1rS7_iVd1npV-38" vertex="1">
          <mxGeometry x="40" width="200" height="20" as="geometry">
            <mxRectangle width="200" height="20" as="alternateBounds" />
          </mxGeometry>
        </mxCell>
        <mxCell id="8rxtPhz_1rS7_iVd1npV-41" value="" style="shape=tableRow;horizontal=0;startSize=0;swimlaneHead=0;swimlaneBody=0;fillColor=none;collapsible=0;dropTarget=0;points=[[0,0.5],[1,0.5]];portConstraint=eastwest;top=0;left=0;right=0;bottom=0;" parent="8rxtPhz_1rS7_iVd1npV-34" vertex="1">
          <mxGeometry y="80" width="240" height="20" as="geometry" />
        </mxCell>
        <mxCell id="8rxtPhz_1rS7_iVd1npV-42" value="" style="shape=partialRectangle;connectable=0;fillColor=none;top=0;left=0;bottom=0;right=0;editable=1;overflow=hidden;" parent="8rxtPhz_1rS7_iVd1npV-41" vertex="1">
          <mxGeometry width="40" height="20" as="geometry">
            <mxRectangle width="40" height="20" as="alternateBounds" />
          </mxGeometry>
        </mxCell>
        <mxCell id="8rxtPhz_1rS7_iVd1npV-43" value="email VARCHAR(254) NOT NULL" style="shape=partialRectangle;connectable=0;fillColor=none;top=0;left=0;bottom=0;right=0;align=left;spacingLeft=6;overflow=hidden;fontSize=10;fontFamily=Courier New;" parent="8rxtPhz_1rS7_iVd1npV-41" vertex="1">
          <mxGeometry x="40" width="200" height="20" as="geometry">
            <mxRectangle width="200" height="20" as="alternateBounds" />
          </mxGeometry>
        </mxCell>
        <mxCell id="8rxtPhz_1rS7_iVd1npV-44" value="" style="shape=tableRow;horizontal=0;startSize=0;swimlaneHead=0;swimlaneBody=0;fillColor=none;collapsible=0;dropTarget=0;points=[[0,0.5],[1,0.5]];portConstraint=eastwest;top=0;left=0;right=0;bottom=0;" parent="8rxtPhz_1rS7_iVd1npV-34" vertex="1">
          <mxGeometry y="100" width="240" height="30" as="geometry" />
        </mxCell>
        <mxCell id="8rxtPhz_1rS7_iVd1npV-45" value="" style="shape=partialRectangle;connectable=0;fillColor=none;top=0;left=0;bottom=0;right=0;editable=1;overflow=hidden;" parent="8rxtPhz_1rS7_iVd1npV-44" vertex="1">
          <mxGeometry width="40" height="30" as="geometry">
            <mxRectangle width="40" height="30" as="alternateBounds" />
          </mxGeometry>
        </mxCell>
        <mxCell id="8rxtPhz_1rS7_iVd1npV-46" value="phone_number VARCHAR(10)&#xa;  NOT NULL" style="shape=partialRectangle;connectable=0;fillColor=none;top=0;left=0;bottom=0;right=0;align=left;spacingLeft=6;overflow=hidden;fontSize=10;fontFamily=Courier New;" parent="8rxtPhz_1rS7_iVd1npV-44" vertex="1">
          <mxGeometry x="40" width="200" height="30" as="geometry">
            <mxRectangle width="200" height="30" as="alternateBounds" />
          </mxGeometry>
        </mxCell>
        <mxCell id="8rxtPhz_1rS7_iVd1npV-47" value="" style="shape=tableRow;horizontal=0;startSize=0;swimlaneHead=0;swimlaneBody=0;fillColor=none;collapsible=0;dropTarget=0;points=[[0,0.5],[1,0.5]];portConstraint=eastwest;top=0;left=0;right=0;bottom=0;" parent="8rxtPhz_1rS7_iVd1npV-34" vertex="1">
          <mxGeometry y="130" width="240" height="20" as="geometry" />
        </mxCell>
        <mxCell id="8rxtPhz_1rS7_iVd1npV-48" value="" style="shape=partialRectangle;connectable=0;fillColor=none;top=0;left=0;bottom=0;right=0;editable=1;overflow=hidden;" parent="8rxtPhz_1rS7_iVd1npV-47" vertex="1">
          <mxGeometry width="40" height="20" as="geometry">
            <mxRectangle width="40" height="20" as="alternateBounds" />
          </mxGeometry>
        </mxCell>
        <mxCell id="8rxtPhz_1rS7_iVd1npV-49" value="building VARCHAR(100)" style="shape=partialRectangle;connectable=0;fillColor=none;top=0;left=0;bottom=0;right=0;align=left;spacingLeft=6;overflow=hidden;fontSize=10;fontFamily=Courier New;" parent="8rxtPhz_1rS7_iVd1npV-47" vertex="1">
          <mxGeometry x="40" width="200" height="20" as="geometry">
            <mxRectangle width="200" height="20" as="alternateBounds" />
          </mxGeometry>
        </mxCell>
        <mxCell id="8rxtPhz_1rS7_iVd1npV-51" value="" style="shape=tableRow;horizontal=0;startSize=0;swimlaneHead=0;swimlaneBody=0;fillColor=none;collapsible=0;dropTarget=0;points=[[0,0.5],[1,0.5]];portConstraint=eastwest;top=0;left=0;right=0;bottom=0;" parent="8rxtPhz_1rS7_iVd1npV-34" vertex="1">
          <mxGeometry y="150" width="240" height="20" as="geometry" />
        </mxCell>
        <mxCell id="8rxtPhz_1rS7_iVd1npV-52" value="" style="shape=partialRectangle;connectable=0;fillColor=none;top=0;left=0;bottom=0;right=0;editable=1;overflow=hidden;" parent="8rxtPhz_1rS7_iVd1npV-51" vertex="1">
          <mxGeometry width="40" height="20" as="geometry">
            <mxRectangle width="40" height="20" as="alternateBounds" />
          </mxGeometry>
        </mxCell>
        <mxCell id="8rxtPhz_1rS7_iVd1npV-53" value="description TEXT" style="shape=partialRectangle;connectable=0;fillColor=none;top=0;left=0;bottom=0;right=0;align=left;spacingLeft=6;overflow=hidden;fontSize=10;fontFamily=Courier New;" parent="8rxtPhz_1rS7_iVd1npV-51" vertex="1">
          <mxGeometry x="40" width="200" height="20" as="geometry">
            <mxRectangle width="200" height="20" as="alternateBounds" />
          </mxGeometry>
        </mxCell>
        <mxCell id="8rxtPhz_1rS7_iVd1npV-58" value="" style="edgeStyle=orthogonalEdgeStyle;fontSize=12;html=1;endArrow=ERoneToMany;startArrow=ERmandOne;rounded=0;exitX=0;exitY=0.5;exitDx=0;exitDy=0;entryX=1;entryY=0.5;entryDx=0;entryDy=0;dashed=1;" parent="1" source="8rxtPhz_1rS7_iVd1npV-38" target="PI8v7SkOeowznwJ9N4Px-5" edge="1">
          <mxGeometry width="100" height="100" relative="1" as="geometry">
            <mxPoint x="170" y="290" as="sourcePoint" />
            <mxPoint x="170" y="210" as="targetPoint" />
            <Array as="points" />
          </mxGeometry>
        </mxCell>
      </root>
    </mxGraphModel>
  </diagram>
  <diagram id="xxpKjqKSl8rUY2bvpxZ_" name="Workflow">
    <mxGraphModel dx="1242" dy="805" grid="1" gridSize="10" guides="1" tooltips="1" connect="1" arrows="1" fold="1" page="1" pageScale="1" pageWidth="820" pageHeight="400" math="0" shadow="0">
      <root>
        <mxCell id="0" />
        <mxCell id="1" parent="0" />
        <mxCell id="7CPWWld5-eM1jWeohSOn-3" value="session" style="shape=umlFrame;whiteSpace=wrap;html=1;rounded=1;shadow=0;comic=0;labelBackgroundColor=none;strokeWidth=1;fontFamily=Verdana;fontSize=12;align=center;" vertex="1" parent="1">
          <mxGeometry x="180" y="200" width="600" height="160" as="geometry" />
        </mxCell>
        <mxCell id="7CPWWld5-eM1jWeohSOn-2" style="edgeStyle=orthogonalEdgeStyle;rounded=0;orthogonalLoop=1;jettySize=auto;html=1;exitX=0.5;exitY=0;exitDx=0;exitDy=0;entryX=0;entryY=1;entryDx=0;entryDy=0;curved=1;fillColor=#dae8fc;strokeColor=#6c8ebf;" edge="1" parent="1" source="zRrrVxvY9KwIdSZLNn0Z-110" target="zRrrVxvY9KwIdSZLNn0Z-69">
          <mxGeometry relative="1" as="geometry" />
        </mxCell>
        <mxCell id="zRrrVxvY9KwIdSZLNn0Z-49" style="edgeStyle=orthogonalEdgeStyle;rounded=0;orthogonalLoop=1;jettySize=auto;html=1;exitX=1;exitY=0.5;exitDx=0;exitDy=0;entryX=0;entryY=0.5;entryDx=0;entryDy=0;fillColor=#d5e8d4;strokeColor=#82b366;" parent="1" source="zRrrVxvY9KwIdSZLNn0Z-2" target="zRrrVxvY9KwIdSZLNn0Z-48" edge="1">
          <mxGeometry relative="1" as="geometry" />
        </mxCell>
        <mxCell id="zRrrVxvY9KwIdSZLNn0Z-2" value="Welcome page" style="rounded=0;whiteSpace=wrap;html=1;fillColor=#d5e8d4;strokeColor=#82b366;" parent="1" vertex="1">
          <mxGeometry x="40" y="140" width="80" height="40" as="geometry" />
        </mxCell>
        <mxCell id="zRrrVxvY9KwIdSZLNn0Z-52" style="edgeStyle=orthogonalEdgeStyle;rounded=0;orthogonalLoop=1;jettySize=auto;html=1;exitX=1;exitY=0.5;exitDx=0;exitDy=0;entryX=0;entryY=0.5;entryDx=0;entryDy=0;fillColor=#dae8fc;strokeColor=#6c8ebf;" parent="1" source="zRrrVxvY9KwIdSZLNn0Z-4" target="zRrrVxvY9KwIdSZLNn0Z-51" edge="1">
          <mxGeometry relative="1" as="geometry" />
        </mxCell>
        <mxCell id="zRrrVxvY9KwIdSZLNn0Z-4" value="Authenticate&lt;div&gt;credentials&lt;/div&gt;" style="rounded=1;whiteSpace=wrap;html=1;fontSize=12;glass=0;strokeWidth=1;shadow=0;fillColor=#dae8fc;strokeColor=#6c8ebf;" parent="1" vertex="1">
          <mxGeometry x="520" y="140" width="80" height="40" as="geometry" />
        </mxCell>
        <mxCell id="zRrrVxvY9KwIdSZLNn0Z-31" value="" style="rhombus;whiteSpace=wrap;html=1;fillColor=#ffe6cc;strokeColor=#d79b00;align=left;spacingLeft=0;" parent="1" vertex="1">
          <mxGeometry x="40" y="335" width="10" height="10" as="geometry" />
        </mxCell>
        <mxCell id="zRrrVxvY9KwIdSZLNn0Z-32" value="" style="rhombus;whiteSpace=wrap;html=1;fillColor=#fff2cc;strokeColor=#d6b656;align=left;spacingLeft=0;" parent="1" vertex="1">
          <mxGeometry x="40" y="350" width="10" height="10" as="geometry" />
        </mxCell>
        <mxCell id="zRrrVxvY9KwIdSZLNn0Z-34" value="" style="rounded=0;whiteSpace=wrap;html=1;fillColor=#d5e8d4;strokeColor=#82b366;align=left;spacingLeft=0;" parent="1" vertex="1">
          <mxGeometry x="40" y="305" width="10" height="10" as="geometry" />
        </mxCell>
        <mxCell id="zRrrVxvY9KwIdSZLNn0Z-35" value="State" style="text;html=1;align=left;verticalAlign=middle;whiteSpace=wrap;rounded=0;fontSize=11;" parent="1" vertex="1">
          <mxGeometry x="55" y="305" width="65" height="10" as="geometry" />
        </mxCell>
        <mxCell id="zRrrVxvY9KwIdSZLNn0Z-36" value="Action" style="text;html=1;align=left;verticalAlign=middle;whiteSpace=wrap;rounded=0;fontSize=11;" parent="1" vertex="1">
          <mxGeometry x="55" y="320" width="65" height="10" as="geometry" />
        </mxCell>
        <mxCell id="zRrrVxvY9KwIdSZLNn0Z-38" value="Decision" style="text;html=1;align=left;verticalAlign=middle;whiteSpace=wrap;rounded=0;fontSize=11;" parent="1" vertex="1">
          <mxGeometry x="55" y="335" width="65" height="10" as="geometry" />
        </mxCell>
        <mxCell id="zRrrVxvY9KwIdSZLNn0Z-39" value="Join" style="text;html=1;align=left;verticalAlign=middle;whiteSpace=wrap;rounded=0;fontSize=11;" parent="1" vertex="1">
          <mxGeometry x="55" y="350" width="65" height="10" as="geometry" />
        </mxCell>
        <mxCell id="zRrrVxvY9KwIdSZLNn0Z-40" value="" style="rounded=1;whiteSpace=wrap;html=1;fillColor=#dae8fc;strokeColor=#6c8ebf;" parent="1" vertex="1">
          <mxGeometry x="40" y="320" width="10" height="10" as="geometry" />
        </mxCell>
        <mxCell id="zRrrVxvY9KwIdSZLNn0Z-44" value="log in" style="edgeStyle=orthogonalEdgeStyle;rounded=0;orthogonalLoop=1;jettySize=auto;html=1;exitX=1;exitY=0.5;exitDx=0;exitDy=0;entryX=0;entryY=0.5;entryDx=0;entryDy=0;fillColor=#ffe6cc;strokeColor=#d79b00;" parent="1" source="zRrrVxvY9KwIdSZLNn0Z-42" target="zRrrVxvY9KwIdSZLNn0Z-4" edge="1">
          <mxGeometry x="-0.2" relative="1" as="geometry">
            <mxPoint as="offset" />
          </mxGeometry>
        </mxCell>
        <mxCell id="zRrrVxvY9KwIdSZLNn0Z-45" value="sign up" style="edgeStyle=orthogonalEdgeStyle;rounded=0;orthogonalLoop=1;jettySize=auto;html=1;exitX=0.5;exitY=0;exitDx=0;exitDy=0;entryX=0;entryY=0.5;entryDx=0;entryDy=0;fillColor=#ffe6cc;strokeColor=#d79b00;" parent="1" source="zRrrVxvY9KwIdSZLNn0Z-42" target="zRrrVxvY9KwIdSZLNn0Z-46" edge="1">
          <mxGeometry x="0.3333" relative="1" as="geometry">
            <mxPoint x="490" y="80" as="targetPoint" />
            <mxPoint as="offset" />
          </mxGeometry>
        </mxCell>
        <mxCell id="zRrrVxvY9KwIdSZLNn0Z-42" value="" style="rhombus;whiteSpace=wrap;html=1;shadow=0;fontFamily=Helvetica;fontSize=12;align=center;strokeWidth=1;spacing=6;spacingTop=-4;fillColor=#ffe6cc;strokeColor=#d79b00;" parent="1" vertex="1">
          <mxGeometry x="380" y="140" width="40" height="40" as="geometry" />
        </mxCell>
        <mxCell id="zRrrVxvY9KwIdSZLNn0Z-57" style="edgeStyle=orthogonalEdgeStyle;rounded=0;orthogonalLoop=1;jettySize=auto;html=1;exitX=1;exitY=0.5;exitDx=0;exitDy=0;entryX=0;entryY=0.5;entryDx=0;entryDy=0;fillColor=#d5e8d4;strokeColor=#82b366;" parent="1" source="zRrrVxvY9KwIdSZLNn0Z-46" target="zRrrVxvY9KwIdSZLNn0Z-55" edge="1">
          <mxGeometry relative="1" as="geometry" />
        </mxCell>
        <mxCell id="zRrrVxvY9KwIdSZLNn0Z-46" value="Create account page" style="rounded=0;whiteSpace=wrap;html=1;fillColor=#d5e8d4;strokeColor=#82b366;" parent="1" vertex="1">
          <mxGeometry x="520" y="60" width="80" height="40" as="geometry" />
        </mxCell>
        <mxCell id="zRrrVxvY9KwIdSZLNn0Z-50" style="edgeStyle=orthogonalEdgeStyle;rounded=0;orthogonalLoop=1;jettySize=auto;html=1;exitX=1;exitY=0.5;exitDx=0;exitDy=0;entryX=0;entryY=0.5;entryDx=0;entryDy=0;fillColor=#fff2cc;strokeColor=#d6b656;" parent="1" source="zRrrVxvY9KwIdSZLNn0Z-48" target="zRrrVxvY9KwIdSZLNn0Z-42" edge="1">
          <mxGeometry relative="1" as="geometry" />
        </mxCell>
        <mxCell id="zRrrVxvY9KwIdSZLNn0Z-48" value="" style="rhombus;whiteSpace=wrap;html=1;shadow=0;fontFamily=Helvetica;fontSize=12;align=center;strokeWidth=1;spacing=6;spacingTop=-4;fillColor=#fff2cc;strokeColor=#d6b656;" parent="1" vertex="1">
          <mxGeometry x="220" y="140" width="40" height="40" as="geometry" />
        </mxCell>
        <mxCell id="zRrrVxvY9KwIdSZLNn0Z-53" value="fail" style="edgeStyle=orthogonalEdgeStyle;rounded=0;orthogonalLoop=1;jettySize=auto;html=1;exitX=0.5;exitY=1;exitDx=0;exitDy=0;entryX=1;entryY=1;entryDx=0;entryDy=0;fillColor=#ffe6cc;strokeColor=#d79b00;" parent="1" source="zRrrVxvY9KwIdSZLNn0Z-51" target="zRrrVxvY9KwIdSZLNn0Z-48" edge="1">
          <mxGeometry relative="1" as="geometry">
            <Array as="points">
              <mxPoint x="720" y="190" />
              <mxPoint x="250" y="190" />
            </Array>
          </mxGeometry>
        </mxCell>
        <mxCell id="zRrrVxvY9KwIdSZLNn0Z-61" value="success" style="edgeStyle=orthogonalEdgeStyle;rounded=0;orthogonalLoop=1;jettySize=auto;html=1;exitX=1;exitY=0.5;exitDx=0;exitDy=0;entryX=1;entryY=0.5;entryDx=0;entryDy=0;fillColor=#ffe6cc;strokeColor=#d79b00;" parent="1" source="zRrrVxvY9KwIdSZLNn0Z-51" target="zRrrVxvY9KwIdSZLNn0Z-69" edge="1">
          <mxGeometry x="-0.1667" relative="1" as="geometry">
            <mxPoint x="760" y="240" as="targetPoint" />
            <mxPoint as="offset" />
          </mxGeometry>
        </mxCell>
        <mxCell id="zRrrVxvY9KwIdSZLNn0Z-51" value="" style="rhombus;whiteSpace=wrap;html=1;shadow=0;fontFamily=Helvetica;fontSize=12;align=center;strokeWidth=1;spacing=6;spacingTop=-4;fillColor=#ffe6cc;strokeColor=#d79b00;" parent="1" vertex="1">
          <mxGeometry x="700" y="140" width="40" height="40" as="geometry" />
        </mxCell>
        <mxCell id="zRrrVxvY9KwIdSZLNn0Z-58" style="edgeStyle=orthogonalEdgeStyle;rounded=0;orthogonalLoop=1;jettySize=auto;html=1;exitX=0.5;exitY=0;exitDx=0;exitDy=0;entryX=0.5;entryY=0;entryDx=0;entryDy=0;fillColor=#dae8fc;strokeColor=#6c8ebf;" parent="1" source="zRrrVxvY9KwIdSZLNn0Z-55" target="zRrrVxvY9KwIdSZLNn0Z-48" edge="1">
          <mxGeometry relative="1" as="geometry" />
        </mxCell>
        <mxCell id="zRrrVxvY9KwIdSZLNn0Z-55" value="Fill regist...on&lt;div&gt;&lt;span style=&quot;background-color: initial;&quot;&gt;form&lt;/span&gt;&lt;/div&gt;" style="rounded=1;whiteSpace=wrap;html=1;fontSize=12;glass=0;strokeWidth=1;shadow=0;fillColor=#dae8fc;strokeColor=#6c8ebf;" parent="1" vertex="1">
          <mxGeometry x="680" y="60" width="80" height="40" as="geometry" />
        </mxCell>
        <mxCell id="zRrrVxvY9KwIdSZLNn0Z-87" value="select dept" style="edgeStyle=orthogonalEdgeStyle;rounded=0;orthogonalLoop=1;jettySize=auto;html=1;entryX=0;entryY=0.5;entryDx=0;entryDy=0;curved=1;fillColor=#ffe6cc;strokeColor=#d79b00;" parent="1" target="zRrrVxvY9KwIdSZLNn0Z-65" edge="1">
          <mxGeometry x="-0.1765" y="30" relative="1" as="geometry">
            <mxPoint x="400" y="260" as="sourcePoint" />
            <Array as="points">
              <mxPoint x="400" y="320" />
            </Array>
            <mxPoint as="offset" />
          </mxGeometry>
        </mxCell>
        <mxCell id="zRrrVxvY9KwIdSZLNn0Z-93" value="log out" style="edgeStyle=orthogonalEdgeStyle;rounded=0;orthogonalLoop=1;jettySize=auto;html=1;exitX=0;exitY=0.5;exitDx=0;exitDy=0;entryX=1;entryY=1;entryDx=0;entryDy=0;fillColor=#ffe6cc;strokeColor=#d79b00;" parent="1" source="zRrrVxvY9KwIdSZLNn0Z-62" target="zRrrVxvY9KwIdSZLNn0Z-48" edge="1">
          <mxGeometry relative="1" as="geometry">
            <Array as="points">
              <mxPoint x="250" y="240" />
            </Array>
          </mxGeometry>
        </mxCell>
        <mxCell id="zRrrVxvY9KwIdSZLNn0Z-62" value="" style="rhombus;whiteSpace=wrap;html=1;shadow=0;fontFamily=Helvetica;fontSize=12;align=center;strokeWidth=1;spacing=6;spacingTop=-4;fillColor=#ffe6cc;strokeColor=#d79b00;" parent="1" vertex="1">
          <mxGeometry x="380" y="220" width="40" height="40" as="geometry" />
        </mxCell>
        <mxCell id="zRrrVxvY9KwIdSZLNn0Z-97" style="edgeStyle=orthogonalEdgeStyle;rounded=0;orthogonalLoop=1;jettySize=auto;html=1;exitX=0.5;exitY=0;exitDx=0;exitDy=0;entryX=0.5;entryY=1;entryDx=0;entryDy=0;fillColor=#d5e8d4;strokeColor=#82b366;" parent="1" source="zRrrVxvY9KwIdSZLNn0Z-65" target="zRrrVxvY9KwIdSZLNn0Z-69" edge="1">
          <mxGeometry relative="1" as="geometry" />
        </mxCell>
        <mxCell id="zRrrVxvY9KwIdSZLNn0Z-95" style="edgeStyle=orthogonalEdgeStyle;rounded=0;orthogonalLoop=1;jettySize=auto;html=1;exitX=0;exitY=0.5;exitDx=0;exitDy=0;entryX=1;entryY=0.5;entryDx=0;entryDy=0;fillColor=#fff2cc;strokeColor=#d6b656;" parent="1" source="zRrrVxvY9KwIdSZLNn0Z-69" target="zRrrVxvY9KwIdSZLNn0Z-94" edge="1">
          <mxGeometry relative="1" as="geometry" />
        </mxCell>
        <mxCell id="zRrrVxvY9KwIdSZLNn0Z-69" value="" style="rhombus;whiteSpace=wrap;html=1;shadow=0;fontFamily=Helvetica;fontSize=12;align=center;strokeWidth=1;spacing=6;spacingTop=-4;fillColor=#fff2cc;strokeColor=#d6b656;" parent="1" vertex="1">
          <mxGeometry x="700" y="220" width="40" height="40" as="geometry" />
        </mxCell>
        <mxCell id="zRrrVxvY9KwIdSZLNn0Z-86" value="view docs" style="edgeStyle=orthogonalEdgeStyle;rounded=0;orthogonalLoop=1;jettySize=auto;html=1;exitX=0.5;exitY=1;exitDx=0;exitDy=0;entryX=0;entryY=0.5;entryDx=0;entryDy=0;curved=1;fillColor=#ffe6cc;strokeColor=#d79b00;" parent="1" source="zRrrVxvY9KwIdSZLNn0Z-62" target="zRrrVxvY9KwIdSZLNn0Z-67" edge="1">
          <mxGeometry x="0.5556" y="-10" relative="1" as="geometry">
            <Array as="points">
              <mxPoint x="400" y="320" />
            </Array>
            <mxPoint as="offset" />
          </mxGeometry>
        </mxCell>
        <mxCell id="zRrrVxvY9KwIdSZLNn0Z-111" style="edgeStyle=orthogonalEdgeStyle;rounded=0;orthogonalLoop=1;jettySize=auto;html=1;exitX=0;exitY=0.5;exitDx=0;exitDy=0;entryX=1;entryY=0.5;entryDx=0;entryDy=0;fillColor=#d5e8d4;strokeColor=#82b366;" parent="1" source="zRrrVxvY9KwIdSZLNn0Z-79" target="zRrrVxvY9KwIdSZLNn0Z-110" edge="1">
          <mxGeometry relative="1" as="geometry" />
        </mxCell>
        <mxCell id="zRrrVxvY9KwIdSZLNn0Z-79" value="Edit page" style="rounded=0;whiteSpace=wrap;html=1;fillColor=#d5e8d4;strokeColor=#82b366;" parent="1" vertex="1">
          <mxGeometry x="360" y="300" width="80" height="40" as="geometry" />
        </mxCell>
        <mxCell id="zRrrVxvY9KwIdSZLNn0Z-85" value="click edit" style="edgeStyle=orthogonalEdgeStyle;rounded=0;orthogonalLoop=1;jettySize=auto;html=1;exitX=0.5;exitY=1;exitDx=0;exitDy=0;entryX=0.5;entryY=0;entryDx=0;entryDy=0;fillColor=#ffe6cc;strokeColor=#d79b00;" parent="1" source="zRrrVxvY9KwIdSZLNn0Z-62" target="zRrrVxvY9KwIdSZLNn0Z-79" edge="1">
          <mxGeometry relative="1" as="geometry" />
        </mxCell>
        <mxCell id="zRrrVxvY9KwIdSZLNn0Z-96" style="edgeStyle=orthogonalEdgeStyle;rounded=0;orthogonalLoop=1;jettySize=auto;html=1;exitX=0;exitY=0.5;exitDx=0;exitDy=0;entryX=1;entryY=0.5;entryDx=0;entryDy=0;fillColor=#d5e8d4;strokeColor=#82b366;" parent="1" source="zRrrVxvY9KwIdSZLNn0Z-94" target="zRrrVxvY9KwIdSZLNn0Z-62" edge="1">
          <mxGeometry relative="1" as="geometry" />
        </mxCell>
        <mxCell id="zRrrVxvY9KwIdSZLNn0Z-94" value="Home page" style="rounded=0;whiteSpace=wrap;html=1;fillColor=#d5e8d4;strokeColor=#82b366;" parent="1" vertex="1">
          <mxGeometry x="520" y="220" width="80" height="40" as="geometry" />
        </mxCell>
        <mxCell id="zRrrVxvY9KwIdSZLNn0Z-65" value="Department page" style="rounded=0;whiteSpace=wrap;html=1;fillColor=#d5e8d4;strokeColor=#82b366;" parent="1" vertex="1">
          <mxGeometry x="680" y="300" width="80" height="40" as="geometry" />
        </mxCell>
        <mxCell id="zRrrVxvY9KwIdSZLNn0Z-109" style="edgeStyle=orthogonalEdgeStyle;rounded=0;orthogonalLoop=1;jettySize=auto;html=1;exitX=0.5;exitY=0;exitDx=0;exitDy=0;entryX=0.5;entryY=1;entryDx=0;entryDy=0;fillColor=#d5e8d4;strokeColor=#82b366;curved=1;" parent="1" source="zRrrVxvY9KwIdSZLNn0Z-67" target="zRrrVxvY9KwIdSZLNn0Z-69" edge="1">
          <mxGeometry relative="1" as="geometry" />
        </mxCell>
        <mxCell id="zRrrVxvY9KwIdSZLNn0Z-67" value="Javadoc&lt;div&gt;page&lt;/div&gt;" style="rounded=0;whiteSpace=wrap;html=1;fillColor=#d5e8d4;strokeColor=#82b366;" parent="1" vertex="1">
          <mxGeometry x="520" y="300" width="80" height="40" as="geometry" />
        </mxCell>
        <mxCell id="zRrrVxvY9KwIdSZLNn0Z-116" style="edgeStyle=orthogonalEdgeStyle;rounded=0;orthogonalLoop=1;jettySize=auto;html=1;exitX=0.5;exitY=1;exitDx=0;exitDy=0;entryX=0.5;entryY=0;entryDx=0;entryDy=0;" parent="1" source="zRrrVxvY9KwIdSZLNn0Z-108" target="zRrrVxvY9KwIdSZLNn0Z-2" edge="1">
          <mxGeometry relative="1" as="geometry" />
        </mxCell>
        <mxCell id="zRrrVxvY9KwIdSZLNn0Z-108" value="" style="ellipse;fillColor=#f5f5f5;html=1;fontColor=#333333;strokeColor=#666666;" parent="1" vertex="1">
          <mxGeometry x="70" y="70" width="20" height="20" as="geometry" />
        </mxCell>
        <mxCell id="zRrrVxvY9KwIdSZLNn0Z-110" value="Fill edit form" style="rounded=1;whiteSpace=wrap;html=1;fontSize=12;glass=0;strokeWidth=1;shadow=0;fillColor=#dae8fc;strokeColor=#6c8ebf;" parent="1" vertex="1">
          <mxGeometry x="200" y="300" width="80" height="40" as="geometry" />
        </mxCell>
      </root>
    </mxGraphModel>
  </diagram>
</mxfile>
